<?xml version="1.0" encoding="UTF-8" standalone="no"?>
<!-- Created with Inkscape (http://www.inkscape.org/) -->

<svg
   width="178mm"
   height="46mm"
   viewBox="0 0 178 46"
   version="1.1"
   id="svg132114"
   inkscape:export-filename="D:\WEB IEF CTAA\IEF CTAA LOGO\ief-ctaa-27-7.png"
   inkscape:export-xdpi="200"
   inkscape:export-ydpi="200"
   inkscape:version="1.1.1 (3bf5ae0d25, 2021-09-20)"
   sodipodi:docname="ief-ctaa-27-7.svg"
   xmlns:inkscape="http://www.inkscape.org/namespaces/inkscape"
   xmlns:sodipodi="http://sodipodi.sourceforge.net/DTD/sodipodi-0.dtd"
   xmlns="http://www.w3.org/2000/svg"
   xmlns:svg="http://www.w3.org/2000/svg">
  <sodipodi:namedview
     id="namedview132116"
     pagecolor="#ffffff"
     bordercolor="#666666"
     borderopacity="1.0"
     inkscape:pageshadow="2"
     inkscape:pageopacity="0.0"
     inkscape:pagecheckerboard="0"
     inkscape:document-units="mm"
     showgrid="false"
     width="120mm"
     inkscape:zoom="0.90583672"
     inkscape:cx="300.82684"
     inkscape:cy="20.423107"
     inkscape:window-width="1920"
     inkscape:window-height="1137"
     inkscape:window-x="-8"
     inkscape:window-y="-8"
     inkscape:window-maximized="1"
     inkscape:current-layer="layer2" />
  <defs
     id="defs132111" />
  <g
     inkscape:label="Capa 1"
     inkscape:groupmode="layer"
     id="layer1">
    <rect
       style="display:inline;fill:#162d50;fill-opacity:1;stroke:none;stroke-width:0.600001;stroke-linecap:round;stroke-linejoin:round;stroke-miterlimit:1;stroke-dasharray:none;stroke-dashoffset:1.14279;paint-order:stroke fill markers;stop-color:#000000"
       id="rect1242"
       width="10.677111"
       height="33.664879"
       x="53.802456"
       y="5.1291819"
       ry="0.88159633" />
    <path
       id="rect1343"
       style="display:inline;fill:#162d50;fill-opacity:1;stroke-width:0.600001;stroke-linecap:round;stroke-linejoin:round;stroke-miterlimit:1;stroke-dashoffset:1.14279;paint-order:stroke fill markers;stop-color:#000000"
       d="m 67.00668,5.1291824 h 23.607148 c 0.48841,0 0.8816,0.39319 0.8816,0.8816 v 8.5638636 c -0.004,0.52932 -0.57208,0.71017 -0.93537,0.71017 h -13.5222 c -1.37507,7.5e-4 -1.41508,2.33399 0.0365,2.33399 l 9.10573,-0.0118 c 0.8856,0.0152 1.082,0.37465 1.082,1.22545 l 4e-5,6.69901 c 0.0233,0.80672 -0.48295,1.14206 -1.27304,1.14206 l -8.73,-10e-6 c -1.5875,10e-6 -1.5875,2.40973 0,2.40973 h 13.02527 c 1.05985,0.0335 1.19175,0.39927 1.21111,1.13423 v 7.69502 c 0,0.48841 -0.39319,0.8816 -0.8816,0.8816 H 67.00672 c -0.488397,0 -0.881584,-0.39319 -0.881584,-0.8816 V 6.0108124 c 0,-0.48841 0.393187,-0.8816 0.881584,-0.8816 z"
       sodipodi:nodetypes="sssccccccccccccsssssss" />
    <path
       id="rect1345"
       style="display:inline;fill:#162d50;fill-opacity:1;stroke-width:0.600001;stroke-linecap:round;stroke-linejoin:round;stroke-miterlimit:1;stroke-dashoffset:1.14279;paint-order:stroke fill markers;stop-color:#000000"
       d="m 94.022568,5.1291824 h 23.607252 c 0.4884,0 0.87869,0.3932 0.88159,0.8816 l 0.0474,7.9839236 c 0.0765,0.85735 -0.57547,1.29086 -1.36976,1.29086 h -12.65058 c -1.49309,0 -1.54858,2.33324 0.0258,2.33324 h 8.21438 c 0.91561,-0.0397 1.49945,-0.11698 1.49945,0.76672 l 0.0323,7.31933 c 0.0134,0.79957 -0.39612,0.96865 -1.11252,0.96996 l -8.5583,0.0239 c -1.14662,0.0032 -1.16522,0.88586 -1.16433,1.37426 l 0.0177,9.72548 c 1e-5,0.49913 -0.22949,0.97312 -0.93778,0.96801 l -8.632452,0.0276 c -0.48841,0.002 -0.78171,-0.39319 -0.78171,-0.8816 V 6.0107924 c 0,-0.48841 0.39319,-0.8816 0.8816,-0.8816 z"
       sodipodi:nodetypes="sssccccccccssccsssss" />
    <g
       id="layer2"
       inkscape:label="logo"
       transform="matrix(0.85140429,0,0,0.85140429,-30.227335,-139.70729)"
       style="display:inline">
      <rect
         style="display:inline;opacity:1;fill:#0066ff;fill-opacity:1;stroke:#ffffff;stroke-width:1.13747;stroke-linecap:round;stroke-linejoin:round;stroke-miterlimit:1;stroke-dasharray:none;stroke-dashoffset:1.14279;paint-order:stroke fill markers;stop-color:#000000"
         id="rect1186"
         width="4.9374557"
         height="17.595984"
         x="-82.074066"
         y="-174.58992"
         transform="matrix(0.70710678,-0.70710678,-0.70710678,-0.70710678,0,0)" />
      <rect
         style="display:inline;opacity:1;fill:#5b03de;fill-opacity:1;stroke:#ffffff;stroke-width:1.13747;stroke-linecap:round;stroke-linejoin:round;stroke-miterlimit:1;stroke-dasharray:none;stroke-dashoffset:1.14279;paint-order:stroke fill markers;stop-color:#000000"
         id="rect1128"
         width="12.080437"
         height="13.36762"
         x="-104.7689"
         y="187.90865"
         transform="rotate(-45)" />
      <rect
         style="display:inline;opacity:1;fill:#0b957a;fill-opacity:1;stroke:#ffffff;stroke-width:1.13747;stroke-linecap:round;stroke-linejoin:round;stroke-miterlimit:1;stroke-dasharray:none;stroke-dashoffset:1.14279;paint-order:stroke fill markers;stop-color:#000000"
         id="rect1184"
         width="14.076744"
         height="20.484518"
         x="-82.157127"
         y="174.33125"
         transform="rotate(-45)" />
      <rect
         style="opacity:1;fill:#162d50;fill-opacity:1;stroke:#ffffff;stroke-width:1.13747;stroke-linecap:round;stroke-linejoin:round;stroke-miterlimit:1;stroke-dasharray:none;stroke-dashoffset:1.14279;paint-order:stroke fill markers;stop-color:#000000"
         id="rect1073"
         width="20.090574"
         height="21.35116"
         x="-113.12029"
         y="166.21622"
         transform="rotate(-45)" />
      <rect
         style="display:inline;opacity:1;fill:#f1690f;fill-opacity:1;stroke:#ffffff;stroke-width:1.13747;stroke-linecap:round;stroke-linejoin:round;stroke-miterlimit:1;stroke-dasharray:none;stroke-dashoffset:1.14279;paint-order:stroke fill markers;stop-color:#000000"
         id="rect1182"
         width="10.085182"
         height="22.61174"
         x="82.603241"
         y="178.66449"
         transform="matrix(-0.70710678,0.70710678,0.70710678,0.70710678,0,0)" />
      <rect
         style="opacity:1;fill:#aa0000;fill-opacity:1;stroke:#ffffff;stroke-width:1.13747;stroke-linecap:round;stroke-linejoin:round;stroke-miterlimit:1;stroke-dasharray:none;stroke-dashoffset:1.14279;paint-order:stroke fill markers;stop-color:#000000"
         id="rect358"
         width="15.567926"
         height="21.587517"
         x="-98.155434"
         y="156.99356"
         transform="rotate(-45)" />
    </g>
    <g
       aria-label="INSTITUTO DE ESTUDIOS Y FORMACIÓN"
       transform="matrix(1.132885,0,0,1.1912954,-123.62639,-164.26519)"
       id="text11722"
       style="font-stretch:condensed;font-size:5.16465px;line-height:1.25;font-family:Impact;-inkscape-font-specification:'Impact Condensed';display:inline;fill:#162d50;fill-opacity:1;stroke:none;stroke-width:0.193674"
       inkscape:label="titulo">
      <g
         id="g33036"
         transform="translate(-3.1246727)"
         style="fill:#162d50;fill-opacity:1">
        <path
           d="m 232.30554,142.11788 v 8.595 h -1.93296 v -8.595 z"
           id="path31728"
           style="fill:#162d50;fill-opacity:1;stroke:none;stroke-width:0.379167" />
        <path
           d="m 237.39736,142.11788 v 8.595 h -1.69422 l -1.0055,-3.9073 v 3.9073 h -1.61616 v -8.595 h 1.61616 l 1.08356,3.87015 v -3.87015 z"
           id="path31730"
           style="fill:#162d50;fill-opacity:1;stroke:none;stroke-width:0.379167" />
        <path
           d="m 242.10114,144.78996 h -1.72451 V 144.178 q 0,-0.42836 -0.0662,-0.54566 -0.0661,-0.11729 -0.22052,-0.11729 -0.16755,0 -0.25582,0.15814 -0.0838,0.15815 -0.0838,0.47938 0,0.41309 0.0971,0.62216 0.0927,0.20908 0.52484,0.50488 1.23936,0.85165 1.56132,1.39731 0.32197,0.54567 0.32197,1.7594 0,0.88224 -0.18083,1.30043 -0.17641,0.41818 -0.68803,0.70376 -0.51162,0.28049 -1.19084,0.28049 -0.74537,0 -1.27463,-0.32639 -0.52485,-0.32637 -0.68804,-0.83126 -0.16318,-0.50487 -0.16318,-1.43302 v -0.54057 h 1.72452 v 1.00466 q 0,0.46406 0.0706,0.59666 0.075,0.13266 0.2602,0.13266 0.18525,0 0.27345,-0.16825 0.0927,-0.16825 0.0927,-0.49978 0,-0.72926 -0.17211,-0.95365 -0.17641,-0.22438 -0.86885,-0.74965 -0.69246,-0.53038 -0.91739,-0.77005 -0.22494,-0.2397 -0.3749,-0.66297 -0.1455,-0.42328 -0.1455,-1.08114 0,-0.94853 0.20728,-1.38712 0.21172,-0.43857 0.67923,-0.68337 0.46751,-0.24988 1.12908,-0.24988 0.72334,0 1.23053,0.2703 0.51161,0.27026 0.67481,0.68335 0.16755,0.40797 0.16755,1.39222 z"
           id="path31732"
           style="fill:#162d50;fill-opacity:1;stroke:none;stroke-width:0.364231" />
        <path
           d="m 246.92902,142.11788 v 1.72008 h -1.14784 v 6.87492 h -1.93296 v -6.87492 h -1.14325 v -1.72008 z"
           id="path31734"
           style="fill:#162d50;fill-opacity:1;stroke:none;stroke-width:0.379167" />
        <path
           d="m 249.30275,142.11788 v 8.595 h -1.93296 v -8.595 z"
           id="path31736"
           style="fill:#162d50;fill-opacity:1;stroke:none;stroke-width:0.379167" />
        <path
           d="m 253.97215,142.11788 v 1.72008 h -1.14784 v 6.87492 h -1.93296 v -6.87492 h -1.14324 v -1.72008 z"
           id="path31738"
           style="fill:#162d50;fill-opacity:1;stroke:none;stroke-width:0.379167" />
        <path
           d="m 258.80686,142.11796 v 5.74416 q 0,0.97682 -0.0551,1.37499 -0.0551,0.39285 -0.32599,0.81224 -0.2709,0.41409 -0.71625,0.63176 -0.44077,0.21235 -1.04224,0.21235 -0.66574,0 -1.17539,-0.25483 -0.50964,-0.25481 -0.76216,-0.66359 -0.25253,-0.40878 -0.29845,-0.86002 -0.0459,-0.45657 -0.0459,-1.91118 v -5.08588 h 1.93296 v 6.44494 q 0,0.56273 0.0505,0.72198 0.0551,0.15389 0.2158,0.15389 0.18365,0 0.23416,-0.16989 0.0551,-0.17515 0.0551,-0.81756 v -6.33344 z"
           id="path31740"
           style="fill:#162d50;fill-opacity:1;stroke:none;stroke-width:0.379167" />
        <path
           d="m 263.44872,142.11788 v 1.72008 h -1.14784 v 6.87492 h -1.93296 v -6.87492 h -1.14325 v -1.72008 z"
           id="path31742"
           style="fill:#162d50;fill-opacity:1;stroke:none;stroke-width:0.379167" />
        <path
           d="m 268.30638,147.33115 q 0,1.29536 -0.0551,1.83685 -0.0505,0.53621 -0.33056,0.98215 -0.27548,0.44594 -0.7484,0.68484 -0.4729,0.23889 -1.10192,0.23889 -0.59689,0 -1.07438,-0.22298 -0.47292,-0.22826 -0.76217,-0.67953 -0.28926,-0.45125 -0.34436,-0.98213 -0.0551,-0.53088 -0.0551,-1.85809 v -1.47054 q 0,-1.29536 0.0505,-1.83155 0.0551,-0.54149 0.33058,-0.98745 0.28007,-0.44594 0.75299,-0.68483 0.4729,-0.2389 1.10192,-0.2389 0.59687,0 1.06979,0.22828 0.4775,0.22296 0.76676,0.67423 0.28924,0.45124 0.34434,0.98212 0.0551,0.53089 0.0551,1.8581 z m -1.93296,-2.8243 q 0,-0.59989 -0.0597,-0.76447 -0.0551,-0.16989 -0.23416,-0.16989 -0.15148,0 -0.23415,0.1381 -0.0781,0.13284 -0.0781,0.79633 v 4.01347 q 0,0.74855 0.0505,0.92375 0.0551,0.17515 0.24795,0.17515 0.19741,0 0.25252,-0.20168 0.0551,-0.20168 0.0551,-0.9609 z"
           id="path31744"
           style="fill:#162d50;fill-opacity:1;stroke:none;stroke-width:0.379167" />
      </g>
      <g
         id="g33060"
         transform="translate(-11.792723)"
         style="fill:#162d50;fill-opacity:1">
        <path
           d="m 230.00079,152.67853 h 1.46706 q 1.42048,0 1.9188,0.13038 0.503,0.13039 0.76381,0.42848 0.26081,0.29806 0.326,0.666 0.0652,0.36327 0.0652,1.43444 v 2.64069 q 0,1.01531 -0.0979,1.35994 -0.0931,0.33998 -0.33067,0.5356 -0.23752,0.19094 -0.58683,0.27011 -0.34929,0.0746 -1.05253,0.0746 h -2.47304 z m 1.96073,1.29007 v 4.96003 q 0.42381,0 0.52162,-0.16769 0.0979,-0.17231 0.0979,-0.9268 v -2.92946 q 0,-0.51229 -0.0327,-0.65667 -0.0327,-0.14442 -0.14904,-0.20958 -0.11653,-0.0698 -0.43779,-0.0698 z"
           id="path31746"
           style="fill:#162d50;fill-opacity:1;stroke:none;stroke-width:0.35768" />
        <path
           d="m 235.27286,152.67853 h 3.26942 v 1.50897 h -1.30869 v 1.42979 h 1.22486 v 1.43444 h -1.22486 v 1.65802 h 1.43911 v 1.50896 h -3.39984 z"
           id="path31748"
           style="fill:#162d50;fill-opacity:1;stroke:none;stroke-width:0.35768" />
        <path
           d="m 240.91751,152.67853 h 3.26944 v 1.50897 h -1.30871 v 1.42979 h 1.22488 v 1.43444 h -1.22488 v 1.65802 h 1.43911 v 1.50896 h -3.39984 z"
           id="path31750"
           style="fill:#162d50;fill-opacity:1;stroke:none;stroke-width:0.35768" />
        <path
           d="m 249.03519,154.9606 h -1.821 v -0.55886 q 0,-0.39122 -0.0698,-0.49833 -0.0698,-0.10712 -0.23286,-0.10712 -0.17693,0 -0.27012,0.14442 -0.0885,0.14443 -0.0885,0.43779 0,0.37725 0.1025,0.56819 0.0979,0.19095 0.55423,0.46108 1.30869,0.77777 1.64867,1.27609 0.34,0.49833 0.34,1.60677 0,0.80571 -0.19096,1.18762 -0.18629,0.3819 -0.72654,0.64271 -0.54025,0.25615 -1.25746,0.25615 -0.78709,0 -1.34598,-0.29808 -0.55421,-0.29805 -0.72654,-0.75913 -0.1723,-0.46108 -0.1723,-1.30871 v -0.49367 h 1.82099 v 0.9175 q 0,0.4238 0.0744,0.5449 0.0792,0.12115 0.27479,0.12115 0.1956,0 0.28875,-0.15365 0.0979,-0.15366 0.0979,-0.45643 0,-0.666 -0.18173,-0.87092 -0.1863,-0.20492 -0.9175,-0.68461 -0.73119,-0.48437 -0.96871,-0.70325 -0.23753,-0.21891 -0.39588,-0.60546 -0.15365,-0.38656 -0.15365,-0.98735 0,-0.86625 0.2189,-1.26678 0.22354,-0.40052 0.71723,-0.62408 0.49367,-0.22821 1.19227,-0.22821 0.76378,0 1.29938,0.24684 0.54025,0.24683 0.71256,0.62408 0.17692,0.37258 0.17692,1.27144 z"
           id="path31752"
           style="fill:#162d50;fill-opacity:1;stroke:none;stroke-width:0.35768" />
        <path
           d="m 253.76236,152.67853 v 1.50897 h -1.16433 v 6.03121 h -1.96073 v -6.03121 h -1.15967 v -1.50897 z"
           id="path31754"
           style="fill:#162d50;fill-opacity:1;stroke:none;stroke-width:0.35768" />
        <path
           d="m 258.66651,152.67853 v 5.0392 q 0,0.85694 -0.056,1.20625 -0.056,0.34463 -0.33068,0.71256 -0.27478,0.36327 -0.72653,0.55423 -0.4471,0.18628 -1.05721,0.18628 -0.67531,0 -1.19227,-0.22355 -0.51696,-0.22354 -0.77312,-0.58216 -0.25615,-0.35861 -0.30273,-0.75448 -0.0465,-0.40053 -0.0465,-1.67663 v -4.4617 h 1.96073 v 5.65397 q 0,0.49367 0.0512,0.63338 0.056,0.13501 0.2189,0.13501 0.18629,0 0.23752,-0.14904 0.056,-0.15366 0.056,-0.71723 v -5.55617 z"
           id="path31756"
           style="fill:#162d50;fill-opacity:1;stroke:none;stroke-width:0.35768" />
        <path
           d="m 259.42564,152.67853 h 1.46706 q 1.42047,0 1.9188,0.13038 0.503,0.13039 0.76381,0.42848 0.2608,0.29806 0.326,0.666 0.0652,0.36327 0.0652,1.43444 v 2.64069 q 0,1.01531 -0.0979,1.35994 -0.0931,0.33998 -0.33067,0.5356 -0.23752,0.19094 -0.58681,0.27011 -0.34931,0.0746 -1.05256,0.0746 h -2.47303 z m 1.96073,1.29007 v 4.96003 q 0.42381,0 0.52161,-0.16769 0.0979,-0.17231 0.0979,-0.9268 v -2.92946 q 0,-0.51229 -0.0327,-0.65667 -0.0327,-0.14442 -0.14904,-0.20958 -0.11654,-0.0698 -0.43779,-0.0698 z"
           id="path31758"
           style="fill:#162d50;fill-opacity:1;stroke:none;stroke-width:0.35768" />
        <path
           d="m 266.65844,152.67853 v 7.54018 h -1.96073 v -7.54018 z"
           id="path31760"
           style="fill:#162d50;fill-opacity:1;stroke:none;stroke-width:0.35768" />
        <path
           d="m 271.92585,157.09365 q 0,1.13639 -0.056,1.61143 -0.0512,0.4704 -0.33533,0.86161 -0.27944,0.39121 -0.75915,0.60079 -0.4797,0.20957 -1.11775,0.20957 -0.60544,0 -1.08981,-0.19561 -0.47969,-0.20025 -0.77311,-0.59613 -0.29341,-0.39587 -0.34929,-0.8616 -0.056,-0.46573 -0.056,-1.63006 v -1.29007 q 0,-1.13638 0.0512,-1.60677 0.056,-0.47504 0.33532,-0.86627 0.2841,-0.39121 0.76381,-0.60078 0.47971,-0.20958 1.11775,-0.20958 0.60546,0 1.08515,0.20027 0.48437,0.1956 0.77777,0.59148 0.29342,0.39586 0.34931,0.86159 0.0559,0.46573 0.0559,1.63006 z m -1.96072,-2.47768 q 0,-0.52627 -0.0606,-0.67066 -0.056,-0.14904 -0.23752,-0.14904 -0.15365,0 -0.23754,0.12116 -0.0792,0.11653 -0.0792,0.69859 v 3.52092 q 0,0.65669 0.0511,0.81038 0.056,0.15366 0.2515,0.15366 0.20027,0 0.25615,-0.17693 0.056,-0.17692 0.056,-0.84298 z"
           id="path31762"
           style="fill:#162d50;fill-opacity:1;stroke:none;stroke-width:0.35768" />
        <path
           d="m 276.81137,154.9606 h -1.82102 v -0.55886 q 0,-0.39122 -0.0698,-0.49833 -0.0698,-0.10712 -0.23286,-0.10712 -0.17693,0 -0.27014,0.14442 -0.0885,0.14443 -0.0885,0.43779 0,0.37725 0.1025,0.56819 0.0979,0.19095 0.55421,0.46108 1.30871,0.77777 1.64869,1.27609 0.33998,0.49833 0.33998,1.60677 0,0.80571 -0.19094,1.18762 -0.18629,0.3819 -0.72654,0.64271 -0.54025,0.25615 -1.25748,0.25615 -0.78708,0 -1.34596,-0.29808 -0.55421,-0.29805 -0.72654,-0.75913 -0.17231,-0.46108 -0.17231,-1.30871 v -0.49367 h 1.82102 v 0.9175 q 0,0.4238 0.0744,0.5449 0.0792,0.12115 0.27477,0.12115 0.19561,0 0.28875,-0.15365 0.0979,-0.15366 0.0979,-0.45643 0,-0.666 -0.18173,-0.87092 -0.18629,-0.20492 -0.91748,-0.68461 -0.73121,-0.48437 -0.96873,-0.70325 -0.23752,-0.21891 -0.39586,-0.60546 -0.15366,-0.38656 -0.15366,-0.98735 0,-0.86625 0.21889,-1.26678 0.22355,-0.40052 0.71723,-0.62408 0.49367,-0.22821 1.19226,-0.22821 0.76381,0 1.29941,0.24684 0.54023,0.24683 0.71255,0.62408 0.17693,0.37258 0.17693,1.27144 z"
           id="path31764"
           style="fill:#162d50;fill-opacity:1;stroke:none;stroke-width:0.35768" />
      </g>
      <g
         id="g33048"
         transform="translate(-14.479996)"
         style="fill:#162d50;fill-opacity:1">
        <path
           d="m 234.60077,162.97364 -1.41725,4.76876 v 2.70524 h -1.8004 v -2.70524 l -1.36646,-4.76876 h 1.78656 q 0.42009,2.18356 0.47087,2.94067 0.16164,-1.19566 0.54012,-2.94067 z"
           id="path31766"
           style="fill:#162d50;fill-opacity:1;stroke:none;stroke-width:0.354541" />
        <path
           d="m 236.59968,162.97364 h 3.29151 v 1.49573 h -1.34799 v 1.41724 h 1.20026 v 1.42185 h -1.20026 v 3.13918 h -1.94352 z"
           id="path31768"
           style="fill:#162d50;fill-opacity:1;stroke:none;stroke-width:0.354541" />
        <path
           d="m 244.80307,167.35001 q 0,1.12641 -0.0555,1.59728 -0.0507,0.46627 -0.33238,0.85405 -0.27699,0.38778 -0.75249,0.59552 -0.47548,0.20773 -1.10794,0.20773 -0.60013,0 -1.08024,-0.1939 -0.4755,-0.19849 -0.76633,-0.5909 -0.29083,-0.39239 -0.34624,-0.85403 -0.0555,-0.46164 -0.0555,-1.61575 v -1.27875 q 0,-1.12641 0.0507,-1.59266 0.0555,-0.47087 0.33239,-0.85867 0.2816,-0.38777 0.7571,-0.59551 0.47548,-0.20774 1.10793,-0.20774 0.60013,0 1.07563,0.19851 0.48012,0.19388 0.77094,0.58629 0.29083,0.39239 0.34624,0.85403 0.0555,0.46165 0.0555,1.61575 z m -1.94352,-2.45594 q 0,-0.52165 -0.06,-0.66476 -0.0555,-0.14773 -0.23546,-0.14773 -0.1523,0 -0.23543,0.12008 -0.0785,0.11552 -0.0785,0.69247 v 3.49001 q 0,0.65093 0.0507,0.80327 0.0555,0.15231 0.2493,0.15231 0.19851,0 0.2539,-0.17537 0.0555,-0.17538 0.0555,-0.83559 z"
           id="path31770"
           style="fill:#162d50;fill-opacity:1;stroke:none;stroke-width:0.354541" />
        <path
           d="m 245.52784,162.97364 h 1.3757 q 1.37568,0 1.86041,0.10617 0.48934,0.10618 0.79403,0.54476 0.30929,0.43394 0.30929,1.38954 0,0.8725 -0.21696,1.17257 -0.21698,0.30006 -0.85403,0.36008 0.57704,0.14316 0.77555,0.38317 0.19851,0.24004 0.24466,0.44317 0.0507,0.19851 0.0507,1.10332 v 1.97122 h -1.80501 V 167.964 q 0,-0.60013 -0.097,-0.74325 -0.0923,-0.14315 -0.49396,-0.14315 v 3.37 h -1.94351 z m 1.94352,1.27875 v 1.66192 q 0.32777,0 0.45703,-0.0877 0.13382,-0.0923 0.13382,-0.58629 v -0.41086 q 0,-0.35547 -0.12925,-0.46627 -0.12466,-0.11076 -0.46164,-0.11076 z"
           id="path31772"
           style="fill:#162d50;fill-opacity:1;stroke:none;stroke-width:0.354541" />
        <path
           d="m 256.6165,162.97364 v 7.474 h -1.69884 v -5.04576 l -0.67862,5.04576 h -1.20489 l -0.71555,-4.93036 v 4.93036 h -1.69884 v -7.474 h 2.51595 q 0.11075,0.67401 0.23544,1.58805 l 0.26776,1.90196 0.44317,-3.49001 z"
           id="path31774"
           style="fill:#162d50;fill-opacity:1;stroke:none;stroke-width:0.354541" />
        <path
           d="m 260.75283,162.97364 1.11255,7.474 h -1.98969 l -0.097,-1.34339 h -0.6971 l -0.11532,1.34339 h -2.01277 l 0.98792,-7.474 z m -1.02948,4.80571 q -0.14773,-1.26953 -0.29544,-3.13457 -0.29546,2.14203 -0.36933,3.13457 z"
           id="path31776"
           style="fill:#162d50;fill-opacity:1;stroke:none;stroke-width:0.354541" />
        <path
           d="m 266.7357,166.23283 h -1.94351 v -1.30182 q 0,-0.56783 -0.0646,-0.70632 -0.06,-0.14315 -0.27236,-0.14315 -0.24007,0 -0.30469,0.1708 -0.0646,0.17079 -0.0646,0.73863 v 3.47154 q 0,0.54475 0.0646,0.71093 0.0646,0.16622 0.29083,0.16622 0.21696,0 0.2816,-0.16622 0.0692,-0.16622 0.0692,-0.78016 v -0.93715 h 1.94352 v 0.29083 q 0,1.15874 -0.16622,1.64346 -0.16164,0.48473 -0.72478,0.84942 -0.55859,0.3647 -1.38031,0.3647 -0.85403,0 -1.40801,-0.3093 -0.55398,-0.3093 -0.73402,-0.85403 -0.17995,-0.54937 -0.17995,-1.64808 v -2.18357 q 0,-0.80786 0.0555,-1.20949 0.0555,-0.40625 0.32777,-0.78019 0.27699,-0.37392 0.76172,-0.58627 0.48934,-0.21698 1.12179,-0.21698 0.85865,0 1.41724,0.33238 0.55859,0.33238 0.73402,0.83095 0.17537,0.49397 0.17537,1.5419 z"
           id="path31778"
           style="fill:#162d50;fill-opacity:1;stroke:none;stroke-width:0.354541" />
        <path
           d="m 269.3763,162.97364 v 7.474 h -1.94352 v -7.474 z"
           id="path31780"
           style="fill:#162d50;fill-opacity:1;stroke:none;stroke-width:0.354541" />
        <path
           d="m 274.59748,167.35001 q 0,1.12641 -0.0555,1.59728 -0.0507,0.46627 -0.33238,0.85405 -0.27697,0.38778 -0.75247,0.59552 -0.4755,0.20773 -1.10794,0.20773 -0.60015,0 -1.08024,-0.1939 -0.4755,-0.19849 -0.76633,-0.5909 -0.29085,-0.39239 -0.34624,-0.85403 -0.0555,-0.46164 -0.0555,-1.61575 v -1.27875 q 0,-1.12641 0.0507,-1.59266 0.0555,-0.47087 0.33238,-0.85867 0.28161,-0.38777 0.75711,-0.59551 0.47548,-0.20774 1.10793,-0.20774 0.60013,0 1.07563,0.19851 0.48011,0.19388 0.77094,0.58629 0.29083,0.39239 0.34623,0.85403 0.0555,0.46165 0.0555,1.61575 z m -1.94352,-2.45594 q 0,-0.52165 -0.06,-0.66476 -0.0555,-0.14773 -0.23544,-0.14773 -0.1523,0 -0.23543,0.12008 -0.0785,0.11552 -0.0785,0.69247 v 3.49001 q 0,0.65093 0.0507,0.80327 0.0555,0.15231 0.2493,0.15231 0.19849,0 0.2539,-0.17537 0.0555,-0.17538 0.0555,-0.83559 z m 1.26951,-3.40692 -1.5188,1.25105 h -0.93714 l 0.81249,-1.25105 z"
           id="path31782"
           style="fill:#162d50;fill-opacity:1;stroke:none;stroke-width:0.354541" />
        <path
           d="m 279.6617,162.97364 v 7.474 h -1.70347 l -1.01099,-3.3977 v 3.3977 h -1.62499 v -7.474 h 1.62499 l 1.08947,3.36538 v -3.36538 z"
           id="path31784"
           style="fill:#162d50;fill-opacity:1;stroke:none;stroke-width:0.354541" />
      </g>
    </g>
  </g>
</svg>
